<svg xmlns="http://www.w3.org/2000/svg" viewBox="0 0 1600 320" width="1600" height="320" role="img" aria-label="Windows on the outside. Enterprise Linux on the inside.">
  <defs>
    <linearGradient id="fbg" x1="0" y1="0" x2="1" y2="1">
      <stop offset="0%" stop-color="#071226"/>
      <stop offset="100%" stop-color="#123a6b"/>
    </linearGradient>
    <linearGradient id="fgold" x1="0" y1="0" x2="1" y2="0">
      <stop offset="0%" stop-color="#c9a227"/>
      <stop offset="50%" stop-color="#ffd34e"/>
      <stop offset="100%" stop-color="#c9a227"/>
    </linearGradient>
  </defs>
  <rect width="1600" height="320" fill="url(#fbg)"/>
  <rect width="1600" height="10" fill="url(#fgold)"/>
  <rect y="310" width="1600" height="10" fill="url(#fgold)"/>
  <g fill="#ffd34e" opacity="0.10" transform="translate(1188,28) scale(0.78)">
    <ellipse cx="210" cy="168" rx="230" ry="32"/>
    <path d="M76 156 C88 70 150 28 210 28 C270 28 332 70 344 156 C304 136 244 128 210 128 C176 128 116 136 76 156 Z"/>
  </g>
  <text x="800" y="78" text-anchor="middle" font-family="Segoe UI, Helvetica Neue, Arial, sans-serif" font-size="36" font-weight="700" fill="#ffffff">Windows on the outside. Enterprise Linux on the inside.</text>
  <text x="800" y="118" text-anchor="middle" font-family="Segoe UI, Helvetica Neue, Arial, sans-serif" font-size="20" fill="#9fd0ff">Community project · not affiliated with Red Hat, Inc.</text>
  <g font-family="Segoe UI, Helvetica Neue, Arial, sans-serif" font-size="22" font-weight="700" text-anchor="middle">
    <rect x="96" y="168" rx="14" width="168" height="72" fill="#0c1c38" stroke="#ffd34e" stroke-width="2"/>
    <text x="180" y="212" fill="#ffffff">MATE</text>
    <rect x="284" y="168" rx="14" width="168" height="72" fill="#0c1c38" stroke="#4da3ff" stroke-width="2"/>
    <text x="368" y="212" fill="#ffffff">GNOME</text>
    <rect x="472" y="168" rx="14" width="168" height="72" fill="#0c1c38" stroke="#ffd34e" stroke-width="2"/>
    <text x="556" y="212" fill="#ffffff">KDE 6</text>
    <rect x="660" y="168" rx="14" width="168" height="72" fill="#0c1c38" stroke="#4da3ff" stroke-width="2"/>
    <text x="744" y="212" fill="#ffffff">Podman</text>
    <rect x="848" y="168" rx="14" width="168" height="72" fill="#0c1c38" stroke="#ffd34e" stroke-width="2"/>
    <text x="932" y="212" fill="#ffffff">systemd</text>
    <rect x="1036" y="168" rx="14" width="168" height="72" fill="#0c1c38" stroke="#4da3ff" stroke-width="2"/>
    <text x="1120" y="212" fill="#ffffff">X410</text>
    <rect x="1224" y="168" rx="14" width="168" height="72" fill="#0c1c38" stroke="#ffd34e" stroke-width="2"/>
    <text x="1308" y="212" fill="#ffffff">WSLg</text>
  </g>
</svg>
